<svg width="200" height="48" viewBox="0 0 200 48" fill="none" xmlns="http://www.w3.org/2000/svg">
<g clip-path="url(#clip0_1_26)">
<rect x="0.5" width="48" height="48" rx="10" fill="#02CA96"/>
<circle cx="14.5" cy="14" r="4" fill="black"/>
<circle cx="14.5" cy="24" r="4" fill="black"/>
<circle cx="14.5" cy="34" r="4" fill="black"/>
<circle cx="24.5" cy="14" r="4" fill="black"/>
<circle cx="24.5" cy="24" r="4" fill="black"/>
<circle cx="34.5" cy="14" r="4" fill="black"/>
<circle cx="42.5" cy="44" r="16" fill="#00DEA4"/>
</g>
<path d="M60.3205 34.5V13.5545H74.1886V17.2057H64.7489V22.1966H73.2682V25.8477H64.7489V34.5H60.3205ZM86.175 27.8114V18.7909H90.5318V34.5H86.3489V31.6466H86.1852C85.8307 32.567 85.2409 33.3068 84.4159 33.8659C83.5977 34.425 82.5989 34.7045 81.4193 34.7045C80.3693 34.7045 79.4455 34.4659 78.6477 33.9886C77.85 33.5114 77.2261 32.833 76.7761 31.9534C76.333 31.0739 76.108 30.0205 76.1011 28.7932V18.7909H80.458V28.0159C80.4648 28.9432 80.7136 29.6761 81.2045 30.2148C81.6955 30.7534 82.3534 31.0227 83.1784 31.0227C83.7034 31.0227 84.1943 30.9034 84.6511 30.6648C85.108 30.4193 85.4761 30.058 85.7557 29.5807C86.042 29.1034 86.1818 28.5136 86.175 27.8114ZM98.4963 34.7966C97.494 34.7966 96.6009 34.6227 95.8168 34.275C95.0327 33.9205 94.4122 33.3989 93.9554 32.7102C93.5054 32.0148 93.2804 31.1489 93.2804 30.1125C93.2804 29.2398 93.4406 28.5068 93.7611 27.9136C94.0815 27.3205 94.5179 26.8432 95.0702 26.4818C95.6224 26.1205 96.2497 25.8477 96.952 25.6636C97.6611 25.4795 98.4043 25.35 99.1815 25.275C100.095 25.1795 100.832 25.0909 101.391 25.0091C101.95 24.9205 102.355 24.7909 102.608 24.6205C102.86 24.45 102.986 24.1977 102.986 23.8636V23.8023C102.986 23.1545 102.782 22.6534 102.372 22.2989C101.97 21.9443 101.397 21.767 100.654 21.767C99.8702 21.767 99.2463 21.9409 98.7827 22.2886C98.319 22.6295 98.0122 23.0591 97.8622 23.5773L93.8327 23.25C94.0372 22.2955 94.4395 21.4705 95.0395 20.775C95.6395 20.0727 96.4134 19.5341 97.3611 19.1591C98.3156 18.7773 99.4202 18.5864 100.675 18.5864C101.547 18.5864 102.383 18.6886 103.18 18.8932C103.985 19.0977 104.697 19.4148 105.318 19.8443C105.945 20.2739 106.439 20.8261 106.801 21.5011C107.162 22.1693 107.343 22.9705 107.343 23.9045V34.5H103.211V32.3216H103.088C102.836 32.8125 102.499 33.2455 102.076 33.6205C101.653 33.9886 101.145 34.2784 100.552 34.4898C99.9588 34.6943 99.2736 34.7966 98.4963 34.7966ZM99.744 31.7898C100.385 31.7898 100.951 31.6636 101.442 31.4114C101.933 31.1523 102.318 30.8045 102.597 30.3682C102.877 29.9318 103.017 29.4375 103.017 28.8852V27.2182C102.88 27.3068 102.693 27.3886 102.454 27.4636C102.222 27.5318 101.96 27.5966 101.667 27.658C101.374 27.7125 101.08 27.7636 100.787 27.8114C100.494 27.8523 100.228 27.8898 99.9895 27.9239C99.4781 27.9989 99.0315 28.1182 98.6497 28.2818C98.2679 28.4455 97.9713 28.667 97.7599 28.9466C97.5486 29.2193 97.4429 29.5602 97.4429 29.9693C97.4429 30.5625 97.6577 31.0159 98.0872 31.3295C98.5236 31.6364 99.0759 31.7898 99.744 31.7898ZM119.079 18.7909V22.0636H109.618V18.7909H119.079ZM111.766 15.0273H116.123V29.6727C116.123 30.075 116.184 30.3886 116.307 30.6136C116.43 30.8318 116.6 30.9852 116.818 31.0739C117.043 31.1625 117.303 31.2068 117.596 31.2068C117.8 31.2068 118.005 31.1898 118.209 31.1557C118.414 31.1148 118.571 31.0841 118.68 31.0636L119.365 34.3057C119.147 34.3739 118.84 34.4523 118.445 34.5409C118.049 34.6364 117.568 34.6943 117.003 34.7148C115.953 34.7557 115.032 34.6159 114.241 34.2955C113.457 33.975 112.847 33.4773 112.411 32.8023C111.974 32.1273 111.759 31.275 111.766 30.2455V15.0273ZM145.133 20.1C144.908 19.4114 144.611 18.7943 144.243 18.2489C143.882 17.6966 143.449 17.2261 142.944 16.8375C142.446 16.4489 141.88 16.1523 141.246 15.9477C140.612 15.7432 139.917 15.6409 139.16 15.6409C137.919 15.6409 136.791 15.9614 135.775 16.6023C134.759 17.2432 133.951 18.1875 133.351 19.4352C132.751 20.683 132.451 22.2136 132.451 24.0273C132.451 25.8409 132.754 27.3716 133.361 28.6193C133.968 29.867 134.789 30.8114 135.826 31.4523C136.862 32.0932 138.028 32.4136 139.324 32.4136C140.524 32.4136 141.58 32.158 142.494 31.6466C143.414 31.1284 144.13 30.3989 144.642 29.458C145.16 28.5102 145.419 27.3955 145.419 26.1136L146.196 26.2773H139.896V24.0273H147.874V26.2773C147.874 28.0023 147.505 29.5023 146.769 30.7773C146.039 32.0523 145.03 33.0409 143.742 33.7432C142.46 34.4386 140.987 34.7864 139.324 34.7864C137.469 34.7864 135.839 34.35 134.435 33.4773C133.037 32.6045 131.946 31.3636 131.162 29.7545C130.385 28.1455 129.996 26.2364 129.996 24.0273C129.996 22.3705 130.218 20.8807 130.661 19.558C131.111 18.2284 131.745 17.0966 132.563 16.1625C133.382 15.2284 134.35 14.5125 135.468 14.0148C136.586 13.517 137.817 13.2682 139.16 13.2682C140.264 13.2682 141.294 13.4352 142.249 13.7693C143.21 14.0966 144.066 14.5636 144.816 15.1705C145.572 15.7705 146.203 16.4898 146.708 17.3284C147.212 18.1602 147.56 19.0841 147.751 20.1H145.133ZM158.477 34.8273C156.963 34.8273 155.657 34.4932 154.56 33.825C153.469 33.15 152.627 32.2091 152.034 31.0023C151.447 29.7886 151.154 28.3773 151.154 26.7682C151.154 25.1591 151.447 23.7409 152.034 22.5136C152.627 21.2795 153.452 20.3182 154.509 19.6295C155.572 18.9341 156.813 18.5864 158.231 18.5864C159.049 18.5864 159.857 18.7227 160.655 18.9955C161.453 19.2682 162.179 19.7114 162.834 20.325C163.488 20.9318 164.01 21.7364 164.398 22.7386C164.787 23.7409 164.981 24.975 164.981 26.4409V27.4636H152.872V25.3773H162.527C162.527 24.4909 162.349 23.7 161.995 23.0045C161.647 22.3091 161.149 21.7602 160.502 21.358C159.861 20.9557 159.104 20.7545 158.231 20.7545C157.27 20.7545 156.438 20.9932 155.736 21.4705C155.04 21.9409 154.505 22.5545 154.13 23.3114C153.755 24.0682 153.568 24.8795 153.568 25.7455V27.1364C153.568 28.3227 153.772 29.3284 154.181 30.1534C154.597 30.9716 155.173 31.5955 155.91 32.025C156.646 32.4477 157.502 32.6591 158.477 32.6591C159.111 32.6591 159.684 32.5705 160.195 32.3932C160.713 32.2091 161.16 31.9364 161.535 31.575C161.91 31.2068 162.199 30.75 162.404 30.2045L164.736 30.8591C164.49 31.65 164.078 32.3455 163.498 32.9455C162.919 33.5386 162.203 34.0023 161.351 34.3364C160.498 34.6636 159.54 34.8273 158.477 34.8273ZM171.066 25.05V34.5H168.653V18.7909H170.985V21.2455H171.189C171.557 20.4477 172.116 19.8068 172.866 19.3227C173.616 18.8318 174.585 18.5864 175.771 18.5864C176.835 18.5864 177.765 18.8045 178.563 19.2409C179.361 19.6705 179.981 20.325 180.424 21.2045C180.868 22.0773 181.089 23.1818 181.089 24.5182V34.5H178.676V24.6818C178.676 23.4477 178.355 22.4864 177.714 21.7977C177.073 21.1023 176.194 20.7545 175.076 20.7545C174.305 20.7545 173.616 20.9216 173.01 21.2557C172.41 21.5898 171.936 22.0773 171.588 22.7182C171.24 23.3591 171.066 24.1364 171.066 25.05ZM191.882 34.8273C190.409 34.8273 189.141 34.4795 188.077 33.7841C187.013 33.0886 186.195 32.1307 185.622 30.9102C185.05 29.6898 184.763 28.2955 184.763 26.7273C184.763 25.1318 185.057 23.7239 185.643 22.5034C186.236 21.2761 187.061 20.3182 188.118 19.6295C189.182 18.9341 190.422 18.5864 191.841 18.5864C192.945 18.5864 193.941 18.7909 194.827 19.2C195.713 19.6091 196.439 20.1818 197.005 20.9182C197.571 21.6545 197.922 22.5136 198.059 23.4955H195.645C195.461 22.7795 195.052 22.1455 194.418 21.5932C193.791 21.0341 192.945 20.7545 191.882 20.7545C190.941 20.7545 190.116 21 189.407 21.4909C188.704 21.975 188.155 22.6602 187.76 23.5466C187.371 24.4261 187.177 25.4591 187.177 26.6455C187.177 27.8591 187.368 28.9159 187.75 29.8159C188.138 30.7159 188.684 31.4148 189.386 31.9125C190.095 32.4102 190.927 32.6591 191.882 32.6591C192.509 32.6591 193.078 32.55 193.589 32.3318C194.101 32.1136 194.534 31.8 194.888 31.3909C195.243 30.9818 195.495 30.4909 195.645 29.9182H198.059C197.922 30.8455 197.585 31.6807 197.046 32.4239C196.514 33.1602 195.809 33.7466 194.929 34.183C194.057 34.6125 193.041 34.8273 191.882 34.8273Z" fill="white"/>
<defs>
<clipPath id="clip0_1_26">
<rect width="48" height="48" fill="white" transform="translate(0.5)"/>
</clipPath>
</defs>
</svg>
